<svg xmlns="http://www.w3.org/2000/svg" viewBox="0 0 580 100" width="580" height="100">
  <defs>
    <radialGradient id="gbl-g" cx="50%" cy="50%" r="60%">
      <stop offset="0%" stop-color="#00C8E8" stop-opacity="0.10"/>
      <stop offset="100%" stop-color="#050709" stop-opacity="0"/>
    </radialGradient>
  </defs>

  <!-- Mark (0-100 viewport) -->
  <rect x="2" y="2" width="96" height="96" rx="10" fill="url(#gbl-g)"/>
  <!-- Face fills -->
  <polygon points="50,19.69 85,34.85 50,50 15,34.85" fill="#00C8E8" fill-opacity="0.055"/>
  <polygon points="85,34.85 85,65.15 50,80.31 50,50" fill="#00C8E8" fill-opacity="0.105"/>
  <polygon points="15,34.85 50,50 50,80.31 15,65.15" fill="#00C8E8" fill-opacity="0.030"/>
  <!-- Hex outline + glow -->
  <polygon points="50,19.69 85,34.85 85,65.15 50,80.31 15,65.15 15,34.85" fill="none" stroke="#00C8E8" stroke-width="9" stroke-opacity="0.04"/>
  <polygon points="50,19.69 85,34.85 85,65.15 50,80.31 15,65.15 15,34.85" fill="none" stroke="#00C8E8" stroke-width="6" stroke-opacity="0.07"/>
  <polygon points="50,19.69 85,34.85 85,65.15 50,80.31 15,65.15 15,34.85" fill="none" stroke="#00C8E8" stroke-width="3.8" stroke-opacity="0.12"/>
  <polygon points="50,19.69 85,34.85 85,65.15 50,80.31 15,65.15 15,34.85" fill="none" stroke="#00C8E8" stroke-width="2.4"/>
  <!-- Dividers -->
  <line x1="50" y1="50" x2="50" y2="19.69" stroke="#00C8E8" stroke-width="5" stroke-opacity="0.06" stroke-linecap="round"/>
  <line x1="50" y1="50" x2="85" y2="65.15" stroke="#00C8E8" stroke-width="5" stroke-opacity="0.06" stroke-linecap="round"/>
  <line x1="50" y1="50" x2="15" y2="65.15" stroke="#00C8E8" stroke-width="5" stroke-opacity="0.06" stroke-linecap="round"/>
  <line x1="50" y1="50" x2="50" y2="19.69" stroke="#00C8E8" stroke-width="2" stroke-opacity="0.82" stroke-linecap="round"/>
  <line x1="50" y1="50" x2="85" y2="65.15" stroke="#00C8E8" stroke-width="2" stroke-opacity="0.82" stroke-linecap="round"/>
  <line x1="50" y1="50" x2="15" y2="65.15" stroke="#00C8E8" stroke-width="2" stroke-opacity="0.82" stroke-linecap="round"/>
  <!-- NN edges (glow) -->
  <line x1="79.75" y1="45.60" x2="67.5" y2="47.88" stroke="#00C8E8" stroke-width="4" stroke-opacity="0.08" stroke-linecap="round"/>
  <line x1="79.75" y1="45.60" x2="67.5" y2="57.58" stroke="#00C8E8" stroke-width="4" stroke-opacity="0.08" stroke-linecap="round"/>
  <line x1="79.75" y1="45.60" x2="67.5" y2="67.27" stroke="#00C8E8" stroke-width="4" stroke-opacity="0.08" stroke-linecap="round"/>
  <line x1="79.75" y1="58.94" x2="67.5" y2="47.88" stroke="#00C8E8" stroke-width="4" stroke-opacity="0.08" stroke-linecap="round"/>
  <line x1="79.75" y1="58.94" x2="67.5" y2="57.58" stroke="#00C8E8" stroke-width="4" stroke-opacity="0.08" stroke-linecap="round"/>
  <line x1="79.75" y1="58.94" x2="67.5" y2="67.27" stroke="#00C8E8" stroke-width="4" stroke-opacity="0.08" stroke-linecap="round"/>
  <line x1="67.5" y1="47.88" x2="56.3" y2="55.75" stroke="#00C8E8" stroke-width="4" stroke-opacity="0.08" stroke-linecap="round"/>
  <line x1="67.5" y1="47.88" x2="56.3" y2="69.10" stroke="#00C8E8" stroke-width="4" stroke-opacity="0.08" stroke-linecap="round"/>
  <line x1="67.5" y1="57.58" x2="56.3" y2="55.75" stroke="#00C8E8" stroke-width="4" stroke-opacity="0.08" stroke-linecap="round"/>
  <line x1="67.5" y1="57.58" x2="56.3" y2="69.10" stroke="#00C8E8" stroke-width="4" stroke-opacity="0.08" stroke-linecap="round"/>
  <line x1="67.5" y1="67.27" x2="56.3" y2="55.75" stroke="#00C8E8" stroke-width="4" stroke-opacity="0.08" stroke-linecap="round"/>
  <line x1="67.5" y1="67.27" x2="56.3" y2="69.10" stroke="#00C8E8" stroke-width="4" stroke-opacity="0.08" stroke-linecap="round"/>
  <!-- NN edges (main) -->
  <line x1="79.75" y1="45.60" x2="67.5" y2="47.88" stroke="#00C8E8" stroke-width="1.1" stroke-opacity="0.65" stroke-linecap="round"/>
  <line x1="79.75" y1="45.60" x2="67.5" y2="57.58" stroke="#00C8E8" stroke-width="1.1" stroke-opacity="0.65" stroke-linecap="round"/>
  <line x1="79.75" y1="45.60" x2="67.5" y2="67.27" stroke="#00C8E8" stroke-width="1.1" stroke-opacity="0.65" stroke-linecap="round"/>
  <line x1="79.75" y1="58.94" x2="67.5" y2="47.88" stroke="#00C8E8" stroke-width="1.1" stroke-opacity="0.65" stroke-linecap="round"/>
  <line x1="79.75" y1="58.94" x2="67.5" y2="57.58" stroke="#00C8E8" stroke-width="1.1" stroke-opacity="0.65" stroke-linecap="round"/>
  <line x1="79.75" y1="58.94" x2="67.5" y2="67.27" stroke="#00C8E8" stroke-width="1.1" stroke-opacity="0.65" stroke-linecap="round"/>
  <line x1="67.5" y1="47.88" x2="56.3" y2="55.75" stroke="#00C8E8" stroke-width="1.1" stroke-opacity="0.65" stroke-linecap="round"/>
  <line x1="67.5" y1="47.88" x2="56.3" y2="69.10" stroke="#00C8E8" stroke-width="1.1" stroke-opacity="0.65" stroke-linecap="round"/>
  <line x1="67.5" y1="57.58" x2="56.3" y2="55.75" stroke="#00C8E8" stroke-width="1.1" stroke-opacity="0.65" stroke-linecap="round"/>
  <line x1="67.5" y1="57.58" x2="56.3" y2="69.10" stroke="#00C8E8" stroke-width="1.1" stroke-opacity="0.65" stroke-linecap="round"/>
  <line x1="67.5" y1="67.27" x2="56.3" y2="55.75" stroke="#00C8E8" stroke-width="1.1" stroke-opacity="0.65" stroke-linecap="round"/>
  <line x1="67.5" y1="67.27" x2="56.3" y2="69.10" stroke="#00C8E8" stroke-width="1.1" stroke-opacity="0.65" stroke-linecap="round"/>
  <!-- NN nodes -->
  <circle cx="79.75" cy="45.60" r="4" fill="#00C8E8" fill-opacity="0.15"/><circle cx="79.75" cy="45.60" r="1.5" fill="#00C8E8"/><circle cx="79.75" cy="45.60" r="0.65" fill="white" fill-opacity="0.94"/>
  <circle cx="79.75" cy="58.94" r="4" fill="#00C8E8" fill-opacity="0.15"/><circle cx="79.75" cy="58.94" r="1.5" fill="#00C8E8"/><circle cx="79.75" cy="58.94" r="0.65" fill="white" fill-opacity="0.94"/>
  <circle cx="67.5" cy="47.88" r="5" fill="#00C8E8" fill-opacity="0.15"/><circle cx="67.5" cy="47.88" r="1.9" fill="#00C8E8"/><circle cx="67.5" cy="47.88" r="0.8" fill="white" fill-opacity="0.94"/>
  <circle cx="67.5" cy="57.58" r="4" fill="#00C8E8" fill-opacity="0.15"/><circle cx="67.5" cy="57.58" r="1.5" fill="#00C8E8"/><circle cx="67.5" cy="57.58" r="0.65" fill="white" fill-opacity="0.94"/>
  <circle cx="67.5" cy="67.27" r="4" fill="#00C8E8" fill-opacity="0.15"/><circle cx="67.5" cy="67.27" r="1.5" fill="#00C8E8"/><circle cx="67.5" cy="67.27" r="0.65" fill="white" fill-opacity="0.94"/>
  <circle cx="56.3" cy="55.75" r="4" fill="#00C8E8" fill-opacity="0.15"/><circle cx="56.3" cy="55.75" r="1.5" fill="#00C8E8"/><circle cx="56.3" cy="55.75" r="0.65" fill="white" fill-opacity="0.94"/>
  <circle cx="56.3" cy="69.10" r="4" fill="#00C8E8" fill-opacity="0.15"/><circle cx="56.3" cy="69.10" r="1.5" fill="#00C8E8"/><circle cx="56.3" cy="69.10" r="0.65" fill="white" fill-opacity="0.94"/>
  <!-- Top face traces -->
  <line x1="27.25" y1="29.54" x2="62.25" y2="44.70" stroke="#00C8E8" stroke-width="0.75" stroke-opacity="0.22" stroke-linecap="round"/>
  <line x1="37.75" y1="25.00" x2="72.75" y2="40.15" stroke="#00C8E8" stroke-width="0.75" stroke-opacity="0.22" stroke-linecap="round"/>
  <circle cx="46.5" cy="37.88" r="1.5" fill="#00C8E8" fill-opacity="0.48"/>
  <circle cx="51.75" cy="31.06" r="1.5" fill="#00C8E8" fill-opacity="0.48"/>

  <!-- Divider -->
  <line x1="115" y1="18" x2="115" y2="82" stroke="#00C8E8" stroke-width="1.1" stroke-opacity="0.18"/>

  <!-- Wordmark: GLASSBOX -->
  <text x="132" y="69"
        font-family="'Big Shoulders Display','Syne','Arial Black',sans-serif"
        font-size="58" font-weight="700" letter-spacing="-2"
        fill="#EBE7DE" fill-opacity="0.97">GLASSBOX</text>

  <!-- AI tag -->
  <text x="577" y="88"
        font-family="'Jura','DM Sans',sans-serif"
        font-size="14" font-weight="300" letter-spacing="4"
        fill="#00C8E8" fill-opacity="0.84" text-anchor="end">AI</text>
</svg>
